# File created by Blade
# Date/Time:  Thu Jan 22 19:49:01 2015
# Frame Rate: 120.000 fps
#------------------------------------------------------
:FULLY-SPECIFIED
:DEGREES
2167
root -2.144616 2.340490 -10.057165 -23.764815 -8.525040 -1.482053
RightUpLeg -81.578952 8.253331 3.652438
RightLeg 36.474344 -0.000000 -0.000000
RightFoot -3.675861 0.001192 6.345605
RightToeBase -15.771934 -0.000000 0.000000
LeftUpLeg -66.751500 -2.641440 7.560416
LeftLeg 5.129432 -0.000000 -0.000000
LeftFoot 15.513217 -7.509630 -6.083311
LeftToeBase -15.618598 -0.000000 0.000000
Spine 28.981829 0.069578 1.273389
RightShoulder -16.291337 -26.489834 -11.468491
RightArm 14.157506 -28.126153 77.302706
RightForeArm -9.121227 -0.000000 43.468825
RightHand 19.890869 -0.000000 -37.531390
RightHandThumb1 -24.326973 -0.000000 -32.862282
LeftShoulder -19.680688 3.330741 15.200582
LeftArm 13.311009 7.699121 -68.890130
LeftForeArm 39.859687 -0.000000 84.461237
LeftHand -13.991702 -0.000000 -13.265661
LeftHandThumb1 -26.253704 0.000000 33.147579
Head 2.235240 3.469464 -2.356219
2168
root -2.148359 2.337536 -10.059822 -23.882874 -8.597245 -1.525612
RightUpLeg -82.007882 8.384715 3.791255
RightLeg 37.436938 -0.000000 -0.000000
RightFoot -3.950800 0.103946 6.505184
RightToeBase -15.517748 -0.000000 0.000000
LeftUpLeg -66.620401 -2.689808 7.806030
LeftLeg 5.099211 -0.000000 -0.000000
LeftFoot 15.629634 -7.451379 -6.408860
LeftToeBase -15.971791 -0.000000 0.000000
Spine 28.959115 -0.063469 1.147029
RightShoulder -16.272801 -26.484766 -11.530537
RightArm 14.311161 -28.578554 77.251399
RightForeArm -9.131750 -0.000000 42.980944
RightHand 19.967615 -0.000000 -37.368784
RightHandThumb1 -24.326973 -0.000000 -32.862282
LeftShoulder -19.210972 2.512151 15.259812
LeftArm 14.370715 7.530106 -69.486824
LeftForeArm 39.383924 -0.000000 84.623276
LeftHand -13.977768 -0.000000 -12.438251
LeftHandThumb1 -26.253704 0.000000 33.147579
Head 2.668444 3.565665 -2.177300
2169
root -2.148240 2.336164 -10.060031 -24.029399 -8.667356 -1.535445
RightUpLeg -82.485179 8.488592 4.029714
RightLeg 38.553498 -0.000000 -0.000000
RightFoot -4.141331 0.252234 6.477255
RightToeBase -15.406799 -0.000000 0.000000
LeftUpLeg -66.428034 -2.842460 8.190118
LeftLeg 4.950513 -0.000000 -0.000000
LeftFoot 15.772995 -7.309008 -5.838745
LeftToeBase -17.120100 -0.000000 0.000000
Spine 28.939757 -0.221228 0.954759
RightShoulder -16.117521 -26.436107 -11.649337
RightArm 14.366665 -28.919194 77.309031
RightForeArm -9.354500 0.000000 42.475768
RightHand 20.027424 -0.000000 -37.437005
RightHandThumb1 -24.326973 -0.000000 -32.862282
LeftShoulder -18.710315 1.913407 15.415083
LeftArm 15.520281 7.418489 -70.271689
LeftForeArm 39.034879 -0.000000 84.614337
LeftHand -14.057152 0.000000 -11.413340
LeftHandThumb1 -26.253704 0.000000 33.147579
Head 3.136369 3.677316 -1.974900
2170
root -2.156035 2.333032 -10.065770 -24.114820 -8.707732 -1.638221
RightUpLeg -83.027366 8.567775 4.311555
RightLeg 39.659756 -0.000000 -0.000000
RightFoot -4.254999 0.396111 6.409947
RightToeBase -16.511322 -0.000000 0.000000
LeftUpLeg -66.296375 -3.031942 8.701320
LeftLeg 4.805984 -0.000000 -0.000000
LeftFoot 15.918339 -6.962880 -6.501362
LeftToeBase -16.782313 -0.000000 0.000000
Spine 28.874551 -0.454457 0.821103
RightShoulder -15.966751 -26.443117 -11.743991
RightArm 14.471620 -29.246788 77.335177
RightForeArm -9.549643 0.000000 42.049629
RightHand 19.768554 0.000000 -37.369267
RightHandThumb1 -24.326973 -0.000000 -32.862282
LeftShoulder -18.207860 1.397589 15.559876
LeftArm 16.780441 7.484926 -70.854281
LeftForeArm 38.263775 -0.000000 84.394914
LeftHand -13.678431 -0.000000 -10.701069
LeftHandThumb1 -26.253704 0.000000 33.147579
Head 3.613145 3.818126 -1.765599
2171
root -2.176401 2.332754 -10.066046 -24.248541 -8.815576 -1.635538
RightUpLeg -83.580465 8.779486 4.525869
RightLeg 40.787350 -0.000000 -0.000000
RightFoot -4.337657 0.448712 6.449963
RightToeBase -15.896749 -0.000000 0.000000
LeftUpLeg -66.228721 -2.837478 8.604952
LeftLeg 5.013495 -0.000000 -0.000000
LeftFoot 15.822057 -7.311981 -6.708090
LeftToeBase -16.426460 -0.000000 0.000000
Spine 28.860505 -0.563076 0.548000
RightShoulder -15.832982 -26.351003 -11.781936
RightArm 14.538026 -29.634466 77.376856
RightForeArm -9.734901 -0.000000 41.553270
RightHand 19.913902 0.000000 -37.346952
RightHandThumb1 -24.326973 -0.000000 -32.862282
LeftShoulder -17.699246 0.701788 15.704063
LeftArm 17.854004 8.019070 -70.913708
LeftForeArm 37.050902 -0.000000 84.202108
LeftHand -13.747423 0.000000 -9.501872
LeftHandThumb1 -26.253704 0.000000 33.147579
Head 4.009345 4.000258 -1.476336
